<?xml version="1.0" encoding="UTF-8" standalone="no"?>
<!-- Created with Inkscape (http://www.inkscape.org/) -->

<svg
   width="210mm"
   height="297mm"
   viewBox="0 0 210 297"
   version="1.1"
   id="svg1"
   xml:space="preserve"
   inkscape:version="1.3.2 (091e20ef0f, 2023-11-25)"
   sodipodi:docname="dead_frog.svg"
   inkscape:export-filename="frog.png"
   inkscape:export-xdpi="41.60223"
   inkscape:export-ydpi="41.60223"
   xmlns:inkscape="http://www.inkscape.org/namespaces/inkscape"
   xmlns:sodipodi="http://sodipodi.sourceforge.net/DTD/sodipodi-0.dtd"
   xmlns="http://www.w3.org/2000/svg"
   xmlns:svg="http://www.w3.org/2000/svg"><sodipodi:namedview
     id="namedview1"
     pagecolor="#ffffff"
     bordercolor="#000000"
     borderopacity="0.25"
     inkscape:showpageshadow="2"
     inkscape:pageopacity="0.0"
     inkscape:pagecheckerboard="0"
     inkscape:deskcolor="#d1d1d1"
     inkscape:document-units="mm"
     inkscape:zoom="1.973678"
     inkscape:cx="266.5075"
     inkscape:cy="511.98828"
     inkscape:window-width="1362"
     inkscape:window-height="764"
     inkscape:window-x="0"
     inkscape:window-y="0"
     inkscape:window-maximized="0"
     inkscape:current-layer="layer7" /><defs
     id="defs1" /><g
     inkscape:groupmode="layer"
     id="layer7"
     inkscape:label="Layer 2"><path
       d="m 97.687577,101.81239 c -1.481388,-0.0242 -2.828452,0.60575 -3.519681,1.80299 -0.274824,0.47942 -0.426137,1.02292 -0.444418,1.59629 -1.243106,-0.27772 -2.565468,0.39598 -3.84731,0.38499 -1.104332,0.0121 -2.157877,-0.6953 -3.236495,-0.48473 -0.03296,-0.53723 -0.183738,-1.04557 -0.443901,-1.49655 -0.681484,-1.18014 -2.045704,-1.85806 -3.620967,-1.79937 -0.887463,0.0331 -1.789013,0.29872 -2.597258,0.76533 -2.328518,1.34426 -3.319687,3.98692 -2.213818,5.90248 0.150379,0.25205 0.334072,0.4834 0.54777,0.68988 -0.732298,0.66709 -1.384569,1.39068 -1.951302,2.15904 a 4.4246487,4.9195338 29.860528 0 1 0.153996,0.0294 4.4246487,4.9195338 29.860528 0 1 2.436543,6.02444 4.4246487,4.9195338 29.860528 0 1 -5.125785,3.32331 c 0.147868,1.13087 0.443238,2.24442 0.888318,3.31608 -1.916139,0.9343 -3.523299,3.32132 -3.523299,5.14801 0,2.32104 2.048243,4.20232 4.574914,4.20232 2.237256,0 7.39997,0.69159 8.553484,-0.76119 1.791737,0.60021 3.689189,0.91392 5.604309,0.92656 2.045236,-0.0115 4.069548,-0.36641 5.966044,-1.04593 0.96166,1.60943 6.339829,0.88056 8.636169,0.88056 2.52665,0 4.57491,-1.88128 4.57491,-4.20232 0,-1.94509 -1.82176,-4.52559 -3.89899,-5.31079 0.40502,-1.01403 0.67672,-2.06378 0.81752,-3.12901 a 4.9195338,4.4246487 60.139471 0 1 -4.7718,-3.3476 4.9195338,4.4246487 60.139471 0 1 2.31201,-5.96036 c -0.51474,-0.71117 -1.09964,-1.38642 -1.75597,-2.01383 0.32402,-0.26227 0.59291,-0.57543 0.79737,-0.92862 1.106,-1.91543 0.11508,-4.55807 -2.2133,-5.90248 -0.873188,-0.5042 -1.81023,-0.7544 -2.699063,-0.76895 z"
       style="fill:#ffffff;stroke:#000000;stroke-width:1.165;stroke-linecap:round;stroke-linejoin:round"
       id="path12"
       inkscape:export-filename="frog.png"
       inkscape:export-xdpi="41.60223"
       inkscape:export-ydpi="41.60223" /><path
       style="fill:none;stroke:#000000;stroke-width:1.165;stroke-linecap:round;stroke-linejoin:round"
       d="m 92.911459,112.49248 c -1.73475,-2.16765 -4.34129,-3.46496 -6.0702,0.31208"
       id="path5"
       sodipodi:nodetypes="cc" /><path
       d="m 103.55854,111.42627 a 4.9195338,4.4246487 60.139471 0 0 -2.31201,5.96036 4.9195338,4.4246487 60.139471 0 0 4.7718,3.3476 c 0.069,-0.52211 0.10903,-1.0478 0.11318,-1.5751 -0.008,-2.76023 -0.91325,-5.43971 -2.57297,-7.73286 z"
       style="display:inline;fill:none;stroke:#000000;stroke-width:1.25399;stroke-linecap:round;stroke-linejoin:round"
       id="path11" /><path
       d="m 73.824951,120.70994 a 4.4246487,4.9195338 29.860528 0 0 5.125785,-3.32331 4.4246487,4.9195338 29.860528 0 0 -2.436543,-6.02444 4.4246487,4.9195338 29.860528 0 0 -0.153996,-0.0294 c -1.704272,2.3106 -2.635415,5.02596 -2.64635,7.82639 0.0043,0.51926 0.04387,1.03666 0.111104,1.55081 z"
       style="display:inline;fill:none;stroke:#000000;stroke-width:1.25399;stroke-linecap:round;stroke-linejoin:round"
       id="path14" /><ellipse
       style="fill:#999999;stroke:#000000;stroke-width:1.165;stroke-linecap:round;stroke-linejoin:round"
       id="path15"
       cx="89.909615"
       cy="129.18112"
       rx="7.6673584"
       ry="4.1038995" /><g
       id="g1"
       transform="rotate(45,125.20334,145.12057)"><rect
         style="fill:#000000;stroke:#000000;stroke-width:2.5;stroke-linecap:round;stroke-linejoin:round"
         id="rect1"
         width="4.9532018"
         height="0.64094937"
         x="66.098892"
         y="148.5" /><rect
         style="fill:#000000;stroke:#000000;stroke-width:2.5;stroke-linecap:round;stroke-linejoin:round"
         id="rect1-5"
         width="4.9532018"
         height="0.64094937"
         x="146.34387"
         y="-68.895966"
         transform="rotate(90)" /></g><g
       id="g2"
       transform="rotate(45,132.7991,163.45837)"><rect
         style="fill:#000000;stroke:#000000;stroke-width:2.5;stroke-linecap:round;stroke-linejoin:round"
         id="rect1-9"
         width="4.9532018"
         height="0.64094937"
         x="66.098892"
         y="148.5" /><rect
         style="fill:#000000;stroke:#000000;stroke-width:2.5;stroke-linecap:round;stroke-linejoin:round"
         id="rect1-5-1"
         width="4.9532018"
         height="0.64094937"
         x="146.34387"
         y="-68.895966"
         transform="rotate(90)" /></g><path
       d="m 97.687577,101.81239 c -1.481388,-0.0242 -2.828452,0.60575 -3.519681,1.80299 -0.274824,0.47942 -0.426137,1.02292 -0.444418,1.59629 -1.243106,-0.27772 -2.565468,0.39598 -3.84731,0.38499 -1.104332,0.0121 -2.157877,-0.6953 -3.236495,-0.48473 -0.03296,-0.53723 -0.183738,-1.04557 -0.443901,-1.49655 -0.681484,-1.18014 -2.045704,-1.85806 -3.620967,-1.79937 -0.887463,0.0331 -1.789013,0.29872 -2.597258,0.76533 -2.328518,1.34426 -3.319687,3.98692 -2.213818,5.90248 0.150379,0.25205 0.334072,0.4834 0.54777,0.68988 -0.732298,0.66709 -1.384569,1.39068 -1.951302,2.15904 a 4.4246487,4.9195338 29.860528 0 1 0.153996,0.0294 4.4246487,4.9195338 29.860528 0 1 2.436543,6.02444 4.4246487,4.9195338 29.860528 0 1 -5.125785,3.32331 c 0.147868,1.13087 0.443238,2.24442 0.888318,3.31608 -1.916139,0.9343 -3.523299,3.32132 -3.523299,5.14801 0,2.32104 2.048243,4.20232 4.574914,4.20232 2.237256,0 7.39997,0.69159 8.553484,-0.76119 1.791737,0.60021 3.689189,0.91392 5.604309,0.92656 2.045236,-0.0115 4.069548,-0.36641 5.966044,-1.04593 0.96166,1.60943 6.339829,0.88056 8.636169,0.88056 2.52665,0 4.57491,-1.88128 4.57491,-4.20232 0,-1.94509 -1.82176,-4.52559 -3.89899,-5.31079 0.40502,-1.01403 0.67672,-2.06378 0.81752,-3.12901 a 4.9195338,4.4246487 60.139471 0 1 -4.7718,-3.3476 4.9195338,4.4246487 60.139471 0 1 2.31201,-5.96036 c -0.51474,-0.71117 -1.09964,-1.38642 -1.75597,-2.01383 0.32402,-0.26227 0.59291,-0.57543 0.79737,-0.92862 1.106,-1.91543 0.11508,-4.55807 -2.2133,-5.90248 -0.873188,-0.5042 -1.81023,-0.7544 -2.699063,-0.76895 z"
       style="fill:#ffffff;stroke:#000000;stroke-width:1.165;stroke-linecap:round;stroke-linejoin:round"
       id="path1"
       inkscape:export-filename="frog.png"
       inkscape:export-xdpi="41.60223"
       inkscape:export-ydpi="41.60223" /><path
       style="fill:none;stroke:#000000;stroke-width:1.165;stroke-linecap:round;stroke-linejoin:round"
       d="m 92.911459,112.49248 c -1.73475,-2.16765 -4.34129,-3.46496 -6.0702,0.31208"
       id="path2"
       sodipodi:nodetypes="cc" /><path
       d="m 103.55854,111.42627 a 4.9195338,4.4246487 60.139471 0 0 -2.31201,5.96036 4.9195338,4.4246487 60.139471 0 0 4.7718,3.3476 c 0.069,-0.52211 0.10903,-1.0478 0.11318,-1.5751 -0.008,-2.76023 -0.91325,-5.43971 -2.57297,-7.73286 z"
       style="display:inline;fill:none;stroke:#000000;stroke-width:1.25399;stroke-linecap:round;stroke-linejoin:round"
       id="path3" /><path
       d="m 73.824951,120.70994 a 4.4246487,4.9195338 29.860528 0 0 5.125785,-3.32331 4.4246487,4.9195338 29.860528 0 0 -2.436543,-6.02444 4.4246487,4.9195338 29.860528 0 0 -0.153996,-0.0294 c -1.704272,2.3106 -2.635415,5.02596 -2.64635,7.82639 0.0043,0.51926 0.04387,1.03666 0.111104,1.55081 z"
       style="display:inline;fill:none;stroke:#000000;stroke-width:1.25399;stroke-linecap:round;stroke-linejoin:round"
       id="path4" /><ellipse
       style="fill:#999999;stroke:#000000;stroke-width:1.165;stroke-linecap:round;stroke-linejoin:round"
       id="ellipse4"
       cx="89.909615"
       cy="129.18112"
       rx="7.6673584"
       ry="4.1038995" /><g
       id="g5"
       transform="rotate(45,125.20334,145.12057)"><rect
         style="fill:#000000;stroke:#000000;stroke-width:2.5;stroke-linecap:round;stroke-linejoin:round"
         id="rect4"
         width="4.9532018"
         height="0.64094937"
         x="66.098892"
         y="148.5" /><rect
         style="fill:#000000;stroke:#000000;stroke-width:2.5;stroke-linecap:round;stroke-linejoin:round"
         id="rect5"
         width="4.9532018"
         height="0.64094937"
         x="146.34387"
         y="-68.895966"
         transform="rotate(90)" /></g><g
       id="g7"
       transform="rotate(45,132.7991,163.45837)"><rect
         style="fill:#000000;stroke:#000000;stroke-width:2.5;stroke-linecap:round;stroke-linejoin:round"
         id="rect6"
         width="4.9532018"
         height="0.64094937"
         x="66.098892"
         y="148.5" /><rect
         style="fill:#000000;stroke:#000000;stroke-width:2.5;stroke-linecap:round;stroke-linejoin:round"
         id="rect7"
         width="4.9532018"
         height="0.64094937"
         x="146.34387"
         y="-68.895966"
         transform="rotate(90)" /></g></g></svg>
