<?xml version="1.0" encoding="UTF-8" standalone="no"?>
<!-- Created with Inkscape (http://www.inkscape.org/) -->

<svg
   width="210mm"
   height="297mm"
   viewBox="0 0 210 297"
   version="1.1"
   id="svg1"
   inkscape:version="1.3.2 (091e20ef0f, 2023-11-25)"
   sodipodi:docname="flower.svg"
   xmlns:inkscape="http://www.inkscape.org/namespaces/inkscape"
   xmlns:sodipodi="http://sodipodi.sourceforge.net/DTD/sodipodi-0.dtd"
   xmlns:xlink="http://www.w3.org/1999/xlink"
   xmlns="http://www.w3.org/2000/svg"
   xmlns:svg="http://www.w3.org/2000/svg">
  <sodipodi:namedview
     id="namedview1"
     pagecolor="#ffffff"
     bordercolor="#000000"
     borderopacity="0.25"
     inkscape:showpageshadow="2"
     inkscape:pageopacity="0.0"
     inkscape:pagecheckerboard="0"
     inkscape:deskcolor="#d1d1d1"
     inkscape:document-units="mm"
     inkscape:zoom="1.0285808"
     inkscape:cx="299.44172"
     inkscape:cy="657.70236"
     inkscape:window-width="1362"
     inkscape:window-height="764"
     inkscape:window-x="0"
     inkscape:window-y="0"
     inkscape:window-maximized="0"
     inkscape:current-layer="layer1" />
  <defs
     id="defs1">
    <pattern
       inkscape:collect="always"
       xlink:href="#halftones"
       preserveAspectRatio="xMidYMid"
       id="pattern5"
       patternTransform="scale(1)"
       x="0"
       y="0" />
    <pattern
       patternUnits="userSpaceOnUse"
       width="10"
       height="10"
       preserveAspectRatio="xMidYMid"
       style="fill:#dfcf4c"
       id="halftones"
       x="0"
       y="0"
       inkscape:label="Halftones"
       inkscape:collect="always"
       inkscape:isstock="true">
      <g
         id="fullPattern"
         style="display:inline"
         transform="scale(0.1)">
        <circle
           style="fill-opacity:1;stroke:none;paint-order:markers fill stroke;stop-color:#000000"
           id="circle10"
           cx="50"
           cy="50"
           r="25" />
        <path
           id="circle37"
           style="paint-order:markers fill stroke"
           d="M 25,0 A 25,25 0 0 1 0,25 25,25 0 0 1 -25,0 25,25 0 0 1 0,-25 25,25 0 0 1 25,0 Z" />
        <path
           id="circle39"
           style="paint-order:markers fill stroke"
           d="M 125,0 A 25,25 0 0 1 100,25 25,25 0 0 1 75,0 25,25 0 0 1 100,-25 25,25 0 0 1 125,0 Z" />
        <path
           id="circle43"
           style="paint-order:markers fill stroke"
           d="M 25,100 A 25,25 0 0 1 0,125 25,25 0 0 1 -25,100 25,25 0 0 1 0,75 25,25 0 0 1 25,100 Z" />
        <path
           id="circle45"
           style="paint-order:markers fill stroke"
           d="m 125,100 a 25,25 0 0 1 -25,25 25,25 0 0 1 -25,-25 25,25 0 0 1 25,-25 25,25 0 0 1 25,25 z" />
      </g>
    </pattern>
  </defs>
  <g
     inkscape:label="Layer 1"
     inkscape:groupmode="layer"
     id="layer1">
    <path
       id="rect1"
       style="fill:#008000;stroke:#000000;stroke-width:0.79527;stroke-linecap:round;stroke-linejoin:round"
       d="m 95.520026,180.74193 c -2.29363,2.92263 -4.503231,5.87842 -4.143928,9.84884 0.398245,3.60305 1.367918,7.09237 4.143928,10.22228 2.684542,2.84783 5.077484,5.85051 5.224434,10.04466 -0.72721,3.76556 -2.926232,6.91679 -5.224434,10.02659 h 9.528854 c 2.77601,-3.12992 3.74583,-6.61923 4.14408,-10.22228 0.3593,-3.97043 -1.85045,-6.92634 -4.14408,-9.84897 -2.2982,-3.1098 -4.49707,-6.26103 -5.224288,-10.02658 0.146952,-4.19416 2.539748,-7.19671 5.224288,-10.04454 z" />
    <path
       style="fill:#c83737;stroke:#000000;stroke-width:1;stroke-linecap:round;stroke-linejoin:round;stroke-dasharray:none"
       d="m 100.42484,169.84868 c 14.54401,-2.61351 1.21576,-24.38196 -0.14031,-28.47909 -2.689076,4.36785 -15.073548,26.59112 0.14031,28.47909"
       id="path2"
       sodipodi:nodetypes="ccc" />
    <path
       style="fill:#c83737;stroke:#000000;stroke-width:1;stroke-linecap:round;stroke-linejoin:round;stroke-dasharray:none"
       d="m 109.12941,180.69714 c 2.61351,14.54401 24.38196,1.21576 28.47909,-0.14031 -4.36785,-2.68907 -26.59112,-15.07355 -28.47909,0.14031"
       id="path2-2"
       sodipodi:nodetypes="ccc" />
    <path
       style="fill:#c83737;stroke:#000000;stroke-width:1;stroke-linecap:round;stroke-linejoin:round;stroke-dasharray:none"
       d="m 91.579984,179.99145 c -2.61351,-14.54401 -24.38196,-1.21576 -28.47909,0.14031 4.36785,2.68907 26.59112,15.07355 28.47909,-0.14031"
       id="path2-2-7"
       sodipodi:nodetypes="ccc" />
    <path
       style="fill:#c83737;stroke:#000000;stroke-width:1;stroke-linecap:round;stroke-linejoin:round;stroke-dasharray:none"
       d="m 100.00185,188.24746 c -14.544003,2.61351 -1.215753,24.38196 0.14031,28.47909 2.68907,-4.36785 15.07355,-26.59112 -0.14031,-28.47909"
       id="path2-6"
       sodipodi:nodetypes="ccc" />
    <circle
       style="fill:#a05a2c;fill-opacity:1;stroke:#000000;stroke-width:1;stroke-linecap:round;stroke-linejoin:round;stroke-dasharray:none"
       id="path1-3"
       cx="100.28453"
       cy="180.3443"
       r="13.345024" />
    <circle
       style="fill:url(#pattern5);stroke:#000000;stroke-width:1;stroke-linecap:round;stroke-linejoin:round;stroke-dasharray:none;fill-opacity:1"
       id="path1"
       cx="100.28453"
       cy="180.3443"
       r="13.345024" />
  </g>
</svg>
