<?xml version="1.0" encoding="UTF-8" standalone="no"?>
<!-- Created with Inkscape (http://www.inkscape.org/) -->

<svg
   width="210mm"
   height="297mm"
   viewBox="0 0 210 297"
   version="1.1"
   id="svg1"
   xml:space="preserve"
   inkscape:version="1.3.2 (091e20ef0f, 2023-11-25)"
   sodipodi:docname="grandma.svg"
   xmlns:inkscape="http://www.inkscape.org/namespaces/inkscape"
   xmlns:sodipodi="http://sodipodi.sourceforge.net/DTD/sodipodi-0.dtd"
   xmlns="http://www.w3.org/2000/svg"
   xmlns:svg="http://www.w3.org/2000/svg"><sodipodi:namedview
     id="namedview1"
     pagecolor="#ffffff"
     bordercolor="#000000"
     borderopacity="0.25"
     inkscape:showpageshadow="2"
     inkscape:pageopacity="0.0"
     inkscape:pagecheckerboard="0"
     inkscape:deskcolor="#d1d1d1"
     inkscape:document-units="mm"
     inkscape:zoom="3.3802001"
     inkscape:cx="337.25814"
     inkscape:cy="455.15057"
     inkscape:window-width="1362"
     inkscape:window-height="764"
     inkscape:window-x="0"
     inkscape:window-y="0"
     inkscape:window-maximized="0"
     inkscape:current-layer="layer7" /><defs
     id="defs1" /><g
     inkscape:groupmode="layer"
     id="layer7"
     inkscape:label="Layer 2"><path
       d="m 97.687577,101.81239 c -1.481388,-0.0242 -2.828452,0.60575 -3.519681,1.80299 -0.274824,0.47942 -0.426137,1.02292 -0.444418,1.59629 -1.243106,-0.27772 -2.565468,0.39598 -3.84731,0.38499 -1.104332,0.0121 -2.157877,-0.6953 -3.236495,-0.48473 -0.03296,-0.53723 -0.183738,-1.04557 -0.443901,-1.49655 -0.681484,-1.18014 -2.045704,-1.85806 -3.620967,-1.79937 -0.887463,0.0331 -1.789013,0.29872 -2.597258,0.76533 -2.328518,1.34426 -3.319687,3.98692 -2.213818,5.90248 0.150379,0.25205 0.334072,0.4834 0.54777,0.68988 -0.732298,0.66709 -1.384569,1.39068 -1.951302,2.15904 0.05157,0.009 0.102914,0.0186 0.153996,0.0294 2.318435,0.79832 3.409321,3.49558 2.436543,6.02444 -0.843741,2.19135 -2.992688,3.58462 -5.125785,3.32331 0.147868,1.13087 0.443238,2.24442 0.888318,3.31608 -1.916139,0.9343 -3.523299,3.32132 -3.523299,5.14801 0,2.32104 2.048243,4.20232 4.574914,4.20232 2.237256,0 4.330549,0.60948 5.484063,-0.8433 -0.05062,0.99052 6.75861,0.99603 8.67373,1.00867 2.045236,-0.0115 6.564908,-0.62457 8.461404,-1.30409 1.537711,2.2292 3.844469,1.13872 6.140809,1.13872 2.52665,0 4.57491,-1.88128 4.57491,-4.20232 0,-1.94509 -1.82176,-4.52559 -3.89899,-5.31079 0.40502,-1.01403 0.67672,-2.06378 0.81752,-3.12901 -2.02746,0.0763 -3.97876,-1.29259 -4.7718,-3.3476 -0.94067,-2.46933 0.0816,-5.10471 2.31201,-5.96036 -0.51474,-0.71117 -1.09964,-1.38642 -1.75597,-2.01383 0.32402,-0.26227 0.59291,-0.57543 0.79737,-0.92862 1.106,-1.91543 0.11508,-4.55807 -2.2133,-5.90248 -0.873188,-0.5042 -1.81023,-0.7544 -2.699063,-0.76895 z"
       style="fill:none;stroke:#000000;stroke-width:1.165;stroke-linecap:round;stroke-linejoin:round"
       id="path12"
       inkscape:export-filename="frog.png"
       inkscape:export-xdpi="41.60223"
       inkscape:export-ydpi="41.60223"
       sodipodi:nodetypes="cccccccscccccccsscccssccccccscc" /><circle
       style="fill:#000000;stroke:none;stroke-width:1.75512;stroke-linecap:round;stroke-linejoin:round"
       id="path4"
       cx="82.540726"
       cy="108.30381"
       inkscape:label="path4"
       r="1.75" /><circle
       style="fill:#000000;stroke:none;stroke-width:1.25366;stroke-linecap:round;stroke-linejoin:round"
       id="path4-4"
       cx="95.849937"
       cy="119.21175"
       inkscape:label="path4"
       r="1.25" /><circle
       style="fill:#000000;stroke:none;stroke-width:1.75512;stroke-linecap:round;stroke-linejoin:round"
       id="circle4"
       cx="97.599937"
       cy="108.48377"
       inkscape:label="path4"
       r="1.75" /><path
       style="fill:none;stroke:#000000;stroke-width:1.165;stroke-linecap:round;stroke-linejoin:round"
       d="m 92.993029,116.8719 c -2.132776,-0.94955 -4.150707,-0.99406 -6.187009,-0.0392"
       id="path5"
       sodipodi:nodetypes="cc" /><path
       d="m 103.55854,111.42627 a 4.9195338,4.4246487 60.139471 0 0 -2.31201,5.96036 4.9195338,4.4246487 60.139471 0 0 4.7718,3.3476 c 0.069,-0.52211 0.10903,-1.0478 0.11318,-1.5751 -0.008,-2.76023 -0.91325,-5.43971 -2.57297,-7.73286 z"
       style="display:inline;fill:none;stroke:#000000;stroke-width:1.25399;stroke-linecap:round;stroke-linejoin:round"
       id="path11" /><path
       d="m 73.824951,120.70994 a 4.4246487,4.9195338 29.860528 0 0 5.125785,-3.32331 4.4246487,4.9195338 29.860528 0 0 -2.436543,-6.02444 4.4246487,4.9195338 29.860528 0 0 -0.153996,-0.0294 c -1.704272,2.3106 -2.635415,5.02596 -2.64635,7.82639 0.0043,0.51926 0.04387,1.03666 0.111104,1.55081 z"
       style="display:inline;fill:none;stroke:#000000;stroke-width:1.25399;stroke-linecap:round;stroke-linejoin:round"
       id="path14" /><circle
       style="fill:none;stroke:#808080;stroke-width:3.28642;stroke-linecap:round;stroke-linejoin:round"
       id="path16"
       cx="82.295586"
       cy="108.30381"
       r="5" /><circle
       style="fill:none;stroke:#808080;stroke-width:3.28642;stroke-linecap:round;stroke-linejoin:round"
       id="path16-2"
       cx="97.599937"
       cy="108.48377"
       r="5" /><rect
       style="fill:#808080;stroke:#808080;stroke-width:1.165;stroke-linecap:round;stroke-linejoin:round"
       id="rect16"
       width="5.5494895"
       height="1.3664161"
       x="87.295586"
       y="107.99573" /><path
       style="fill:#ff8080;stroke:#000000;stroke-width:1.165;stroke-linecap:square;stroke-linejoin:miter"
       d="m 74.713268,124.02597 6.946487,0.46875 -0.46143,9.0288 17.223967,-0.0433 -0.262821,-8.54713 7.041339,-1.06986 v 0 l 0.62835,-2.04838 -31.133374,-0.14757"
       id="path26"
       sodipodi:nodetypes="ccccccccc" /><path
       id="path29"
       style="fill:#ff0000;stroke:#000000;stroke-width:1.165;stroke-linecap:square;stroke-linejoin:miter"
       d="m 87.760537,124.18002 c -0.465401,0 -0.930653,0.17824 -1.287264,0.53485 -0.713224,0.71322 -0.713221,1.86182 3e-6,2.57504 l 0.869713,0.86971 2.349725,2.35024 c 0.06516,0.0652 0.134956,0.12194 0.206709,0.17519 0.07181,-0.0533 0.141504,-0.10998 0.206706,-0.17518 l 2.350244,-2.35025 0.869714,-0.86971 c 0.713224,-0.71322 0.71322,-1.86182 -3e-6,-2.57504 -0.713223,-0.71322 -1.861808,-0.71322 -2.575032,0 l -0.851628,0.85163 -0.851632,-0.85163 c -0.356608,-0.35661 -0.821862,-0.53485 -1.287255,-0.53485 z m -0.228931,3.75481 c -0.03528,0.0353 -0.06848,0.072 -0.09973,0.10956 0.03125,-0.0376 0.06445,-0.0743 0.09973,-0.10956 z m 4.736145,0 c 0.03529,0.0353 0.06848,0.072 0.09973,0.10955 -0.03125,-0.0376 -0.06444,-0.0742 -0.09973,-0.10955 z" /></g></svg>
