<?xml version="1.0" encoding="UTF-8" standalone="no"?>
<!-- Created with Inkscape (http://www.inkscape.org/) -->

<svg
   width="210mm"
   height="297mm"
   viewBox="0 0 210 297"
   version="1.1"
   id="svg1"
   inkscape:version="1.3.2 (091e20ef0f, 2023-11-25)"
   sodipodi:docname="air.svg"
   xmlns:inkscape="http://www.inkscape.org/namespaces/inkscape"
   xmlns:sodipodi="http://sodipodi.sourceforge.net/DTD/sodipodi-0.dtd"
   xmlns="http://www.w3.org/2000/svg"
   xmlns:svg="http://www.w3.org/2000/svg">
  <sodipodi:namedview
     id="namedview1"
     pagecolor="#ffffff"
     bordercolor="#000000"
     borderopacity="0.25"
     inkscape:showpageshadow="2"
     inkscape:pageopacity="0.0"
     inkscape:pagecheckerboard="0"
     inkscape:deskcolor="#d1d1d1"
     inkscape:document-units="mm"
     inkscape:zoom="1.2512117"
     inkscape:cx="368.44285"
     inkscape:cy="316.09359"
     inkscape:window-width="1362"
     inkscape:window-height="764"
     inkscape:window-x="0"
     inkscape:window-y="0"
     inkscape:window-maximized="0"
     inkscape:current-layer="layer1"
     showgrid="false" />
  <defs
     id="defs1" />
  <g
     inkscape:label="Layer 1"
     inkscape:groupmode="layer"
     id="layer1">
    <circle
       style="fill:#cccccc;stroke:#666666;stroke-width:1.165;stroke-linecap:round;stroke-linejoin:round"
       id="path1"
       cx="91.07843"
       cy="74.758209"
       r="32"
       inkscape:export-filename="elements/water.png"
       inkscape:export-xdpi="24.945908"
       inkscape:export-ydpi="24.945908" />
    <path
       style="fill:#ffffff;fill-opacity:1;fill-rule:nonzero;stroke:none;stroke-width:0.264583"
       id="path5"
       d="m 94.301175,96.305348 c 0.35583,-0.241232 0.71942,-0.466956 1.057545,-0.733259 1.528344,-1.10495 -1.832613,-2.819863 -3.359865,-2.498899 -1.061399,0.463764 -2.160452,0.802957 -3.286318,1.067768 -0.350771,0.07128 -0.489937,0.107889 -0.824336,0.149294 -0.07558,0.0094 -0.292089,-0.02201 -0.227716,0.01868 2.76347,1.747169 2.424044,2.716458 3.81811,1.681433 1.048027,-0.703945 2.184849,-1.262163 3.294888,-1.859817 0.342111,-0.204793 0.970417,-0.354243 0.705278,-0.91658 -0.08313,-0.176308 -0.233378,-0.324726 -0.399013,-0.427485 -1.28003,-0.794136 -2.612334,-1.500746 -3.9185,-2.251117 -2.014739,-0.77129 -4.156779,-1.131949 -6.248884,-1.633765 -0.103738,-0.07976 -0.423624,-0.306248 -0.311214,-0.239271 1.117677,0.665938 2.160093,1.466395 3.329118,2.037403 0.164742,0.08047 0.350377,-0.108797 0.528243,-0.153287 0.308634,-0.0772 0.617789,-0.154006 0.930666,-0.21164 1.14685,-0.211262 1.591326,-0.227033 2.78357,-0.343122 1.474878,-0.118806 2.953854,-0.174138 4.433232,-0.184319 0.363214,-0.0024 0.726461,5e-6 1.089662,0.0038 0.273802,0.0029 0.550334,-0.02323 0.821283,0.01627 0.133612,0.01947 0.248708,0.105214 0.373062,0.157821 -1.114726,-0.696259 -2.171676,-1.494954 -3.344182,-2.088774 -0.152704,-0.07734 -0.325485,0.107807 -0.492408,0.145714 -0.361783,0.08216 -0.725731,0.156324 -1.092195,0.214156 -1.656082,0.261364 -3.330003,0.377317 -5.000776,0.491382 -1.194966,-0.01103 -2.412494,0.205113 -3.608257,0.06771 -0.152758,-0.01754 -0.577263,-0.197122 -0.446339,-0.116488 3.068084,1.889535 2.035884,1.83419 3.495651,1.862881 2.584688,-1.169331 5.457452,-1.45433 8.248983,-1.734489 0.709922,-0.05428 1.799513,-0.121565 2.537151,-0.230629 0.235839,-0.03487 0.487206,-0.03828 0.70033,-0.145114 0.118026,-0.05916 0.338946,-0.245724 0.230996,-0.321741 -3.363588,-2.368653 -2.601403,-2.14308 -5.016781,-2.33336 -3.658823,-0.143611 -7.32852,-0.32875 -10.989874,-0.194202 -0.745905,0.01373 -1.48798,0.110075 -2.233414,0.133384 -0.193532,0.0061 -0.390184,0.02408 -0.580797,-0.0099 -0.06331,-0.0113 -0.205592,-0.153903 -0.150575,-0.12061 3.616569,2.188501 2.243082,2.737154 3.916659,1.85302 0.292433,-0.137779 0.577022,-0.293616 0.877297,-0.41334 0.830901,-0.33129 2.130669,-0.724353 2.963421,-0.95908 1.835915,-0.517488 3.685773,-0.898867 5.558459,-1.253117 1.795,-0.303009 3.601866,-0.568307 5.41909,-0.697021 0.171445,-0.01215 0.647235,0.09041 0.515245,-0.01968 -1.044388,-0.871048 -2.22866,-1.559155 -3.34299,-2.338734 -2.551625,-0.07249 -5.094197,-0.328078 -7.643116,-0.446654 -0.666303,-0.031 -1.333498,-0.0383 -2.000248,-0.05745 -1.441463,-0.02901 -2.883717,-0.06332 -4.325014,-0.0074 -0.251359,0.0097 -0.501912,0.03819 -0.753414,0.04308 -0.129775,0.0026 -0.494937,-0.09565 -0.388839,-0.02088 1.066434,0.751586 2.20936,1.388303 3.314038,2.082456 1.160825,-0.740865 2.369114,-1.361495 3.701804,-1.737627 0.592219,-0.167145 1.19788,-0.282355 1.79682,-0.423534 1.840336,-0.333272 3.705018,-0.498393 5.571106,-0.593082 0.966705,-0.04905 1.934033,-0.08049 2.90064,-0.02806 0.0525,0.01101 0.202735,0.06181 0.157493,0.033 -1.21776,-0.775554 -2.382879,-1.651757 -3.683462,-2.278581 -0.336995,-0.162417 -0.747996,-0.01931 -1.121654,-0.03728 -0.547047,-0.0263 -1.093385,-0.06576 -1.640255,-0.09553 -2.517204,-0.137047 -1.989654,-0.104749 -4.702641,-0.202245 -2.477529,-0.107831 -4.957159,-0.163529 -7.434064,-0.2866 -0.313176,-0.01556 -2.236332,-0.09981 -2.759083,-0.227853 -0.152672,-0.0374 -0.272634,-0.156531 -0.40895,-0.234794 1.137401,0.66911 2.206135,1.471808 3.412207,2.007333 0.187002,0.08303 0.37262,-0.16995 0.564237,-0.241697 0.339997,-0.127307 0.680818,-0.254448 1.029636,-0.355106 1.908181,-0.55064 3.859327,-0.794935 5.823207,-1.046286 3.982347,-0.434028 7.99188,-0.548016 11.995162,-0.565711 0.96402,0.0093 1.11046,-0.0054 1.96909,0.0511 1.54246,0.101547 2.53802,0.716836 -2.871818,-2.242349 -0.208465,-0.11403 -0.470059,0.07224 -0.706792,0.09266 -0.41352,0.03568 -0.828583,0.05037 -1.242875,0.07555 -0.595291,0.02593 -1.190413,0.05616 -1.785879,0.07781 -0.75492,0.02745 -1.510417,0.03831 -2.265191,0.06948 -3.340909,0.13799 -6.675749,0.388125 -10.013283,0.585448 -1.471694,0.06245 -2.962913,0.213683 -4.435991,0.05861 -0.248663,-0.02617 -0.496281,-0.07129 -0.737431,-0.137369 -0.152333,-0.04174 -0.573645,-0.262734 -0.436536,-0.184311 1.027811,0.587875 2.074143,1.142761 3.111215,1.714142 -0.02768,-0.0388 -0.0768,-0.06916 -0.08303,-0.116411 -0.01013,-0.07683 0.266514,-0.256376 0.30816,-0.285229 0.830167,-0.57518 1.563457,-0.769583 2.537357,-1.064247 4.597434,-0.98626 9.333915,-1.01895 14.016082,-1.081238 1.439701,0.0096 2.327722,0.0066 3.725092,0.04597 0.37505,0.01056 0.74987,0.02843 1.12467,0.04584 0.20208,0.0094 0.42763,0.130148 0.60591,0.03455 0.14389,-0.07715 0.31624,-0.366459 0.17953,-0.455705 -1.24166,-0.810554 -2.64366,-1.343848 -3.965496,-2.015771 -0.416909,-0.03259 -0.834501,-0.05737 -1.250725,-0.09777 C 95.961696,72.00613 93.691817,71.731197 91.4016,71.61079 89.778884,71.52548 87.952687,71.506933 86.32455,71.4783 c -1.690568,-0.08923 -3.392387,0.0899 -5.072777,-0.173273 -0.253278,-0.03967 -0.964602,-0.31532 -0.748273,-0.17775 2.86639,1.822821 2.264981,2.471925 3.0613,1.567156 1.127483,-0.831352 2.618801,-0.98444 3.966226,-1.150104 1.811547,-0.222723 2.904958,-0.259955 4.763487,-0.375578 2.64442,-0.05136 5.304158,-0.169209 7.947737,0.004 0.24217,0.01587 0.90817,0.244065 0.7228,0.08742 -1.018586,-0.860748 -2.198993,-1.509324 -3.29849,-2.263984 -0.345294,0.0072 -0.69056,0.02746 -1.035883,0.02172 -0.588444,-0.0098 -1.176169,-0.04555 -1.76425,-0.06832 -0.85226,-0.01736 -1.704427,-0.03989 -2.556777,-0.05205 -3.339648,-0.04766 -6.676435,-0.03404 -10.015926,0.01016 -1.76044,0.0039 -3.964353,0.03198 -5.748444,-0.04572 -0.656518,-0.02859 -1.315095,-0.05641 -1.965891,-0.147489 -0.418333,-0.05854 -1.564177,-0.559877 -1.23122,-0.299937 2.366018,1.847154 1.975572,2.128626 2.8414,1.346041 0.197705,-0.130709 0.382074,-0.284263 0.593111,-0.392126 1.115298,-0.570031 1.93117,-0.802005 3.184991,-1.142759 2.895708,-0.786971 5.771774,-1.264745 8.730649,-1.732232 4.737796,-0.736574 9.528477,-0.934231 14.31562,-0.898478 0.51955,-0.478372 1.14965,0.273056 1.68524,0.100354 0.13978,-0.04507 0.40842,-0.260614 0.28327,-0.337486 -1.29318,-0.794356 -2.66655,-1.473936 -4.08986,-2.000756 -0.48184,-0.178347 -1.026565,-0.04751 -1.539145,-0.08276 -0.709075,-0.04876 -1.417015,-0.112834 -2.125522,-0.169251 -0.891429,-0.05076 -1.782789,-0.102796 -2.674289,-0.152289 -2.463742,-0.136782 -3.563694,-0.222668 -6.072232,-0.221152 -3.093842,0.0019 -6.194193,0.138242 -9.28615,0.238363 -1.42385,0.02421 -2.488748,0.08843 -3.874215,-0.03431 -0.337603,-0.02991 -1.277813,-0.360312 -1.004025,-0.160533 2.813796,2.053167 2.145091,2.128554 3.475623,1.090287 0.338452,-0.148722 0.66504,-0.32807 1.015357,-0.446169 1.114496,-0.375719 2.79691,-0.724395 3.905437,-0.933636 2.951703,-0.557143 5.916846,-0.89154 8.903063,-1.193514 2.43986,-0.258098 4.88085,-0.505404 7.322666,-0.744252 0.635934,-0.0622 1.799142,-0.199506 2.503222,-0.188909 0.17986,0.0027 0.35685,0.04574 0.53528,0.06861 -1.10381,-0.638349 -2.184247,-1.318932 -3.311419,-1.915051 -0.44971,-0.237834 -1.913703,0.113689 -1.948305,0.117017 -0.689779,0.06636 -1.382109,0.103852 -2.073976,0.142783 -2.306262,0.129775 -2.93375,0.12629 -5.294294,0.18552 -0.908939,0.0059 -1.817859,0.0158 -2.726814,0.01778 -2.690109,0.0059 -5.438312,0.101105 -8.110953,-0.279831 -0.319347,-0.04552 -0.632436,-0.127447 -0.948653,-0.19117 -0.184243,-0.06636 -0.721013,-0.299243 -0.552728,-0.199093 1.032142,0.614246 2.115976,1.138301 3.152003,1.745975 0.03892,0.02283 -0.0019,0.127113 0.04334,0.128222 0.142954,0.0035 0.275772,-0.07588 0.412729,-0.117001 0.276449,-0.08301 0.547817,-0.183677 0.827412,-0.255374 0.46822,-0.120065 0.942983,-0.213002 1.414474,-0.319505 5.58152,-0.913691 11.257573,-0.968552 16.899376,-1.029314 3.154968,-0.02315 6.310738,-0.06596 9.464788,0.03586 -0.6208,-0.284448 0.63806,0.137219 0.50146,0.03996 -1.10159,-0.784379 -2.18786,-1.595761 -3.34505,-2.295525 -0.10717,-0.0648 -0.24815,0.03441 -0.37271,0.04734 -0.3753,0.03896 -1.45165,0.123902 -1.69747,0.143984 -3.55749,0.159401 -7.117378,0.333497 -10.677985,0.417692 -2.027179,0.04794 -5.336434,0.06476 -7.379351,0.08006 -2.860045,-0.0042 -5.720548,-0.03094 -8.57868,-0.142608 -1.408356,-0.05502 -2.787457,-0.142637 -4.179877,-0.352068 -0.206063,-0.04861 -0.412126,-0.09722 -0.618186,-0.145827 0,0 2.990186,2.247735 2.990186,2.247735 v 0 c 0.173644,0.01373 0.347287,0.02745 0.520933,0.04118 1.233953,0.03207 2.458291,-0.0055 3.692372,-0.04232 2.701599,-0.08063 5.403524,-0.151066 8.105774,-0.206039 1.836098,-0.03633 5.518306,-0.116618 7.321844,-0.121309 3.876162,-0.01008 7.7517,0.114726 11.62442,0.263708 0.65423,0.01847 1.30873,0.02665 1.96293,0.04608 0.16037,0.0048 0.60104,0.13076 0.48069,0.02469 -3.46474,-3.053887 -1.82344,-2.550285 -3.36952,-2.225654 -2.88268,0.303964 -5.78246,0.390242 -8.676037,0.531844 -5.791303,0.233024 -11.588927,0.334293 -17.371578,0.743268 -0.883547,0.09523 -1.775998,0.158138 -2.647511,0.345487 -0.200718,0.04315 -0.418698,0.06159 -0.591093,0.17308 -1.632701,1.055857 2.107359,2.445568 3.530505,2.553465 3.7021,0.212124 7.414112,-0.137137 11.118374,-0.0976 2.597853,-0.01728 5.19608,-0.03433 7.793995,-0.03674 0.608327,-5.29e-4 1.219585,0.06944 1.824965,0.0095 0.36247,-0.03587 1.30716,-0.03395 1.05238,-0.294272 -0.91192,-0.931778 -2.22471,-1.360109 -3.337067,-2.040162 -3.101792,0.71057 -6.251717,1.200155 -9.409599,1.580195 -3.066809,0.334438 -6.146122,0.598897 -9.204444,1.006133 -0.395502,0.05266 -3.79314,0.572117 -4.348887,0.698831 -0.426612,0.09727 -0.833549,0.26652 -1.250323,0.39978 -0.22892,0.146516 -0.496234,0.245713 -0.686758,0.439545 -1.475684,1.501301 2.237658,2.146659 3.205128,2.581349 0.24348,0.109397 0.533924,-0.0094 0.800386,-0.02511 0.468069,-0.02765 0.935453,-0.06621 1.402728,-0.105029 0.683205,-0.05675 1.365756,-0.121108 2.048635,-0.181663 2.049565,-0.152511 3.59071,-0.28997 5.67319,-0.342437 4.175215,-0.105193 8.354959,0.152035 12.50084,0.63846 0.770221,0.104066 1.542551,0.193543 2.310651,0.312196 0.6212,0.09596 2.10846,0.907253 1.85632,0.331483 -0.40685,-0.929005 -1.74623,-1.061813 -2.48188,-1.759942 -0.10451,-0.09918 0.35132,-0.162092 0.31083,-0.300369 -0.12393,-0.423227 -1.61376,1.484556 -1.31179,0.1719 -4.59041,0.324218 -9.198084,0.553268 -13.737731,1.357 -4.16897,0.677553 -2.065194,0.342628 -6.311439,1.004055 -1.692167,0.274735 -3.304344,0.53042 -4.964298,0.936281 -0.528386,0.12919 -1.059653,0.258042 -1.568481,0.450326 -0.294095,0.111138 -0.550903,0.303117 -0.826355,0.454676 -0.983784,1.803844 -0.755576,0.861702 3.228692,2.662332 0.304945,0.137816 0.666676,0.06901 1.001302,0.07259 0.574064,0.0061 1.147937,-0.02522 1.721747,-0.04347 7.960934,-0.253187 -3.952166,0.09187 5.449112,-0.173976 2.415686,-0.04258 4.372213,-0.107953 6.792873,-0.02434 3.248123,0.112188 6.50159,0.418944 9.705788,0.963419 -0.953469,-0.746215 -1.841673,-1.584335 -2.860409,-2.238642 -0.139374,-0.08951 -0.324366,0.07099 -0.489206,0.08728 -0.389343,0.03848 -0.780661,0.05343 -1.1712,0.07683 -2.092026,0.125368 -4.185822,0.222647 -6.280512,0.290243 -1.435119,0.04042 -3.610023,0.08687 -5.073502,0.1821 -0.634047,0.04126 -1.26733,0.09796 -1.898383,0.172055 -1.135017,0.133274 -1.903322,0.220213 -2.808049,0.894652 -0.09381,0.175554 -0.437121,0.402675 -0.281411,0.526664 1.058447,0.842838 2.299012,1.434541 3.507772,2.04248 0.184647,0.09287 0.412483,0.03276 0.619167,0.03314 0.90306,0.0016 1.665714,-0.08226 2.587448,-0.121761 0.671674,-0.02878 1.343951,-0.04117 2.015929,-0.06175 2.127515,1.11e-4 2.835987,-0.03128 5.003835,0.103373 2.945325,0.182948 5.864627,0.633571 8.745681,1.26579 -0.87037,-0.567809 -1.74074,-1.135618 -2.611113,-1.703427 0.133233,-0.08651 0.409163,-0.100955 0.399703,-0.259527 -0.008,-0.139706 -0.271071,0.07267 -0.409712,0.09177 -0.30861,0.04253 -0.619297,0.0696 -0.929953,0.09285 -0.888513,0.06649 -2.604531,0.14116 -3.416673,0.179959 -2.549292,0.09542 -5.098351,0.185137 -7.646701,0.303961 -1.616263,0.07536 -3.358068,0.136578 -4.974043,0.310981 -0.604911,0.06529 -1.204333,0.174087 -1.806498,0.261133 -1.170887,0.242726 -1.398069,0.221406 -2.395151,0.633664 -0.409504,0.169317 -1.050123,0.45516 -1.192067,0.941795 -0.02907,0.09967 0.01376,0.2072 0.02061,0.3108 1.161061,0.701913 2.29942,1.442831 3.483181,2.105742 0.145439,0.08145 0.986341,0.07364 1.018263,0.07282 1.348652,-0.03446 2.687208,-0.237964 4.025452,-0.386794 2.414231,-0.245621 4.832813,-0.467136 7.259024,-0.557194 2.126869,-0.07894 3.035427,-0.0511 5.122164,0.0054 0.66253,0.01794 1.324792,0.04463 1.987194,0.06694 0.47526,0.01961 0.95104,0.02943 1.42581,0.05885 0.31772,0.01968 1.16785,0.321431 0.95091,0.08846 -2.64143,-2.836662 -1.96561,-2.325257 -3.923809,-2.155722 -0.355367,0.03077 -0.711634,0.05006 -1.067448,0.07509 -3.903379,0.235519 -7.812389,0.394721 -11.703074,0.808588 -2.091306,0.232587 -4.195955,0.417219 -6.267857,0.795134 -0.407884,0.0744 -0.813911,0.160832 -1.215602,0.263551 -0.259172,0.06628 -0.931553,0.03363 -0.7649,0.242895 0.77918,0.978406 1.917886,1.606019 2.876831,2.409026 3.274126,-0.193664 6.558103,-0.115731 9.831475,0.05596 2.730195,0.210216 2.460614,0.162933 5.027218,0.454932 0.603467,0.06866 1.206553,0.141211 1.808403,0.222846 0.46442,0.06299 1.628381,0.614584 1.390102,0.210999 -3.331665,-5.643054 -2.811065,-3.288093 -2.570755,-2.177653 -0.818576,0.174406 -1.662335,0.236488 -2.492528,0.33382 -1.830023,0.214553 -3.661143,0.423217 -5.483331,0.698661 -0.655767,0.114094 -1.316358,0.203298 -1.967304,0.342281 -1.520899,0.324723 -2.973001,0.923811 -4.373901,1.585794 1.08063,0.726519 2.124879,1.510326 3.241892,2.179563 0.07797,0.04671 0.171595,-0.06132 0.260254,-0.08132 0.205068,-0.04627 0.411655,-0.08691 0.619681,-0.117221 1.310704,-0.19096 2.637774,-0.202501 3.959392,-0.218077 3.418864,0.0822 6.872271,0.285721 10.217341,1.034928 -0.951988,-0.73674 -1.847076,-1.553559 -2.855972,-2.210221 -0.102912,-0.06698 -0.226964,0.09644 -0.34613,0.126061 -0.269719,0.06704 -0.544917,0.109728 -0.817653,0.16319 -1.41425,0.277233 -2.831994,0.535987 -4.248054,0.803719 -2.460956,0.497488 -4.901295,1.063834 -7.337359,1.670725 -0.509418,0.12691 -1.022884,0.237932 -1.529755,0.374674 -0.350184,0.09447 -0.693594,0.212463 -1.040392,0.318693 -1.817428,0.615942 -0.937064,0.117811 2.331022,2.601219 0.02755,0.02093 0.03871,-0.06419 0.07149,-0.07524 0.14323,-0.04828 0.294016,-0.07096 0.442706,-0.09809 0.278511,-0.05083 0.558017,-0.09666 0.838417,-0.135742 0.385652,-0.05376 0.772925,-0.09516 1.159389,-0.142743 3.680618,-0.257336 7.395868,-0.180663 11.053402,0.324017 0.432451,0.08925 1.563645,0.619987 1.297355,0.26775 -0.62248,-0.823383 -1.666898,-1.218094 -2.488342,-1.84313 -0.04472,-0.03403 0.199699,0.03388 0.154559,0.06736 -0.151998,0.112741 -0.345316,0.158938 -0.527706,0.209412 -0.718842,0.198927 -1.56867,0.28616 -2.291861,0.386974 -2.937976,0.383392 -5.92156,0.644666 -8.765955,1.517664 -1.688764,1.083791 -1.016257,0.390109 2.730873,2.511057 0.102809,0.05819 0.236191,-0.01048 0.35365,-0.0231 0.226533,-0.02432 0.451501,-0.06177 0.677862,-0.08761 0.370581,-0.04232 0.741646,-0.08039 1.112846,-0.116869 0.485846,-0.04775 0.972166,-0.09055 1.458251,-0.135824 1.735121,-0.134978 3.47155,-0.241896 5.207357,-0.367205 0.443809,-0.03204 0.889846,-0.0426 1.331209,-0.09911 0.25278,-0.03236 0.918675,0.02069 0.746101,-0.166828 -0.86382,-0.938609 -2.02632,-1.550072 -3.039478,-2.325105 -2.104443,0.242536 -4.232434,0.233148 -6.342123,0.408543 -1.344981,0.09907 -2.730156,0.128156 -4.056745,0.394933 -0.276419,0.05559 -0.997276,0.0053 -0.816333,0.22153 1.804435,2.156352 1.843397,2.126909 3.259397,2.453357 2.086052,0.341514 4.195517,0.737418 6.113936,1.661711 -0.79611,-0.478952 -1.585791,-0.968754 -2.388327,-1.436855 -0.124849,-0.07282 0.222575,0.190289 0.354057,0.250315 0.06431,0.02936 0.158668,-0.03842 0.211923,0.0081 0.04813,0.04202 -0.553167,0.436499 -0.560966,0.451866 -1.056934,0.703373 -2.179268,1.285808 -3.308512,1.86306 -0.13653,0.07436 -0.279527,0.137914 -0.409591,0.223086 -0.129974,0.08511 -0.489357,0.189133 -0.367958,0.286094 2.931408,2.341334 2.345658,2.415194 4.28558,1.814365 0.631214,-0.18787 1.26374,-0.370491 1.896142,-0.554268 0.03239,-0.0094 0.960519,-0.287113 1.076145,-0.31079 0.128021,-0.02622 0.259633,-0.02995 0.389451,-0.04493 1.899944,0.273671 -2.318036,-3.165642 -3.129587,-1.862111 -0.308025,0.271719 -0.646205,0.507539 -1.016093,0.6883 z" />
    <path
       style="fill:#ffffff;fill-opacity:1;fill-rule:nonzero;stroke:none;stroke-width:0.264583"
       id="path6"
       d="m 73.516582,82.878328 c -0.108162,0.189847 -0.209074,0.420249 -0.391084,0.551723 -0.260516,0.125661 -0.415779,0.373496 -0.60457,0.584655 -0.110059,0.141308 -0.218771,0.225086 -0.396713,0.253685 0,0 3.279991,2.208231 3.279991,2.208231 v 0 c 0.201555,-0.108569 0.375846,-0.233278 0.49923,-0.430374 0.16696,-0.213953 0.341579,-0.396314 0.577678,-0.536263 0.190894,-0.190759 0.303715,-0.435689 0.464253,-0.651727 z" />
    <path
       style="fill:#ffffff;fill-opacity:1;fill-rule:nonzero;stroke:none;stroke-width:0.264583"
       id="path7"
       d="m 107.04587,70.592177 c 0.39846,-0.354783 0.91215,-0.521873 1.39951,-0.716958 0.49702,-0.177533 1.01038,-0.30534 1.53111,-0.388932 0.34987,-0.03951 0.70563,-0.08329 1.05744,-0.04294 0.10669,0.0163 0.0682,-0.01281 0.10467,0.09994 -1.08662,-0.619548 -2.17323,-1.239097 -3.25984,-1.858645 0,0 3.66978,1.412269 3.66978,1.412269 v 0 c -6.71683,-3.838905 -2.05868,-2.112147 -3.71391,-1.9807 -0.3499,0.03626 -0.69882,0.08203 -1.04599,0.138941 -0.53745,0.104465 -1.05247,0.301495 -1.57373,0.465915 -0.48263,0.217879 -0.96432,0.44535 -1.44741,0.655474 z" />
    <path
       style="fill:#ffffff;fill-opacity:1;fill-rule:nonzero;stroke:none;stroke-width:0.264583"
       id="path8"
       d="m 102.64805,93.837923 c 0.26659,-0.05341 0.55966,-0.186394 0.81814,-0.07246 0,0 -3.15466,-2.339178 -3.15466,-2.339178 v 0 c -0.30413,0.04201 -0.60226,0.114477 -0.905401,0.16301 z" />
  </g>
  <g
     inkscape:groupmode="layer"
     id="layer5"
     inkscape:label="Layer 2" />
  <g
     inkscape:groupmode="layer"
     id="layer6"
     inkscape:label="Layer 3" />
</svg>
